<svg width="309" height="87" viewBox="0 0 309 87" fill="none" xmlns="http://www.w3.org/2000/svg">
<rect width="309" height="86.5488" rx="16" fill="white"/>
<rect x="0.5" y="0.5" width="308" height="85.5488" rx="15.5" stroke="#0A0A0A" stroke-opacity="0.24"/>
<rect x="16" y="16" width="54.5488" height="54.5488" rx="8" fill="#FF4400"/>
<path d="M31.0703 37.2286C31.1384 35.4338 32.1696 33.8103 33.4949 32.4849C35.7006 30.2793 39.2195 30.5757 40.6199 33.085L41.6475 34.9264C42.575 36.5881 42.2027 38.7681 40.742 40.2287M50.167 56.3251C51.9616 56.2572 53.5852 55.2259 54.9106 53.9006C57.1163 51.6949 56.8198 48.1759 54.3106 46.7755L52.4691 45.7479C50.8075 44.8205 48.6274 45.1928 47.1667 46.6535" stroke="white" stroke-width="2"/>
<path d="M31.0648 37.2286C30.9503 40.2499 31.7149 45.3809 36.8619 50.528C42.009 55.675 47.1401 56.4397 50.1614 56.3252M47.1613 46.6534C47.1613 46.6534 45.3894 48.4251 42.1772 45.2128C38.9648 42.0004 40.7366 40.2287 40.7366 40.2287" stroke="white" stroke-width="2"/>
<path d="M84.0165 34.3781V22.2576H91.2841V23.5596H85.4842V27.655H90.7396V28.957H85.4842V34.3781H84.0165ZM93.6084 34.3781V25.2877H95.0051V34.3781H93.6084ZM94.3186 23.7727C94.0464 23.7727 93.8116 23.6799 93.6144 23.4945C93.421 23.3091 93.3244 23.0862 93.3244 22.8258C93.3244 22.5654 93.421 22.3424 93.6144 22.157C93.8116 21.9716 94.0464 21.8788 94.3186 21.8788C94.5909 21.8788 94.8236 21.9716 95.017 22.157C95.2142 22.3424 95.3129 22.5654 95.3129 22.8258C95.3129 23.0862 95.2142 23.3091 95.017 23.4945C94.8236 23.6799 94.5909 23.7727 94.3186 23.7727ZM101.517 25.2877V26.4714H96.8057V25.2877H101.517ZM98.1788 23.1098H99.5754V31.7741C99.5754 32.1686 99.6327 32.4645 99.7471 32.6618C99.8654 32.8551 100.015 32.9853 100.197 33.0524C100.382 33.1155 100.578 33.1471 100.783 33.1471C100.937 33.1471 101.063 33.1392 101.162 33.1234C101.26 33.1037 101.339 33.0879 101.398 33.0761L101.682 34.3307C101.588 34.3662 101.455 34.4017 101.286 34.4372C101.116 34.4767 100.901 34.4964 100.641 34.4964C100.246 34.4964 99.8595 34.4116 99.4808 34.2419C99.1059 34.0723 98.7942 33.8139 98.5457 33.4667C98.3011 33.1195 98.1788 32.6815 98.1788 32.1528V23.1098ZM118.247 26.0452H116.78C116.693 25.6231 116.541 25.2522 116.324 24.9326C116.111 24.613 115.85 24.3448 115.543 24.1278C115.239 23.9068 114.902 23.7411 114.531 23.6306C114.16 23.5202 113.773 23.4649 113.371 23.4649C112.637 23.4649 111.972 23.6504 111.376 24.0212C110.784 24.3921 110.313 24.9385 109.962 25.6606C109.615 26.3826 109.441 27.2683 109.441 28.3178C109.441 29.3673 109.615 30.2531 109.962 30.9751C110.313 31.6971 110.784 32.2436 111.376 32.6144C111.972 32.9853 112.637 33.1707 113.371 33.1707C113.773 33.1707 114.16 33.1155 114.531 33.005C114.902 32.8946 115.239 32.7308 115.543 32.5138C115.85 32.2929 116.111 32.0226 116.324 31.703C116.541 31.3795 116.693 31.0086 116.78 30.5904H118.247C118.137 31.2099 117.936 31.7642 117.644 32.2534C117.352 32.7427 116.989 33.1589 116.555 33.5022C116.121 33.8415 115.633 34.0999 115.093 34.2774C114.556 34.455 113.982 34.5438 113.371 34.5438C112.337 34.5438 111.418 34.2913 110.613 33.7862C109.808 33.2812 109.175 32.5631 108.713 31.632C108.252 30.7009 108.021 29.5962 108.021 28.3178C108.021 27.0395 108.252 25.9348 108.713 25.0036C109.175 24.0725 109.808 23.3544 110.613 22.8494C111.418 22.3444 112.337 22.0919 113.371 22.0919C113.982 22.0919 114.556 22.1807 115.093 22.3582C115.633 22.5358 116.121 22.7962 116.555 23.1394C116.989 23.4787 117.352 23.893 117.644 24.3822C117.936 24.8675 118.137 25.4219 118.247 26.0452ZM121.826 28.9096V34.3781H120.43V22.2576H121.826V26.7081H121.945C122.158 26.2386 122.477 25.8657 122.903 25.5895C123.334 25.3094 123.906 25.1694 124.62 25.1694C125.239 25.1694 125.782 25.2936 126.247 25.5422C126.713 25.7868 127.074 26.1636 127.33 26.6726C127.591 27.1776 127.721 27.8207 127.721 28.6019V34.3781H126.324V28.6966C126.324 27.9746 126.137 27.4163 125.762 27.0217C125.391 26.6233 124.876 26.424 124.217 26.424C123.76 26.424 123.349 26.5207 122.986 26.714C122.627 26.9073 122.343 27.1894 122.134 27.5603C121.929 27.9312 121.826 28.381 121.826 28.9096ZM134.087 34.5674C133.211 34.5674 132.456 34.3741 131.821 33.9875C131.189 33.5969 130.702 33.0524 130.359 32.354C130.02 31.6517 129.85 30.835 129.85 29.9039C129.85 28.9728 130.02 28.1521 130.359 27.4419C130.702 26.7278 131.18 26.1715 131.791 25.773C132.407 25.3706 133.125 25.1694 133.945 25.1694C134.419 25.1694 134.886 25.2483 135.348 25.4061C135.81 25.5639 136.23 25.8204 136.608 26.1754C136.987 26.5266 137.289 26.9922 137.514 27.5721C137.739 28.1521 137.851 28.8662 137.851 29.7145V30.3063H130.844V29.099H136.431C136.431 28.5861 136.328 28.1284 136.123 27.726C135.922 27.3236 135.634 27.006 135.259 26.7732C134.888 26.5404 134.45 26.424 133.945 26.424C133.389 26.424 132.908 26.5621 132.501 26.8383C132.099 27.1105 131.789 27.4656 131.572 27.9036C131.355 28.3415 131.247 28.811 131.247 29.3121V30.117C131.247 30.8035 131.365 31.3854 131.602 31.8628C131.842 32.3363 132.176 32.6973 132.602 32.9459C133.028 33.1905 133.523 33.3128 134.087 33.3128C134.454 33.3128 134.786 33.2615 135.082 33.1589C135.381 33.0524 135.64 32.8946 135.857 32.6855C136.074 32.4724 136.242 32.2081 136.36 31.8924L137.709 32.2712C137.567 32.7289 137.329 33.1313 136.993 33.4785C136.658 33.8217 136.244 34.09 135.75 34.2834C135.257 34.4727 134.703 34.5674 134.087 34.5674ZM143.669 34.5674C142.817 34.5674 142.083 34.3662 141.467 33.9638C140.852 33.5613 140.378 33.007 140.047 32.3008C139.716 31.5945 139.55 30.7877 139.55 29.8802C139.55 28.957 139.719 28.1423 140.059 27.436C140.402 26.7258 140.879 26.1715 141.491 25.773C142.106 25.3706 142.825 25.1694 143.645 25.1694C144.284 25.1694 144.86 25.2877 145.373 25.5244C145.886 25.7612 146.306 26.0926 146.634 26.5187C146.961 26.9448 147.165 27.4419 147.243 28.0101H145.847C145.74 27.5958 145.504 27.2289 145.137 26.9093C144.774 26.5858 144.284 26.424 143.669 26.424C143.124 26.424 142.647 26.566 142.237 26.8501C141.83 27.1302 141.513 27.5268 141.284 28.0397C141.059 28.5486 140.947 29.1464 140.947 29.8329C140.947 30.5352 141.057 31.1467 141.278 31.6675C141.503 32.1883 141.818 32.5927 142.225 32.8808C142.635 33.1688 143.117 33.3128 143.669 33.3128C144.032 33.3128 144.361 33.2497 144.657 33.1234C144.953 32.9971 145.204 32.8157 145.409 32.5789C145.614 32.3422 145.76 32.0581 145.847 31.7267H147.243C147.165 32.2633 146.969 32.7466 146.658 33.1767C146.35 33.6028 145.941 33.9421 145.432 34.1946C144.927 34.4432 144.34 34.5674 143.669 34.5674ZM150.587 31.0639L150.564 29.3358H150.848L154.825 25.2877H156.553L152.315 29.5725H152.197L150.587 31.0639ZM149.285 34.3781V22.2576H150.682V34.3781H149.285ZM155.061 34.3781L151.51 29.8802L152.505 28.9096L156.837 34.3781H155.061Z" fill="#616161"/>
<path d="M90.491 54.2343C90.4279 53.674 90.1675 53.24 89.7098 52.9323C89.2522 52.6206 88.6761 52.4647 87.9817 52.4647C87.4846 52.4647 87.0545 52.5436 86.6916 52.7014C86.3286 52.8553 86.0465 53.0684 85.8453 53.3406C85.648 53.6089 85.5493 53.9147 85.5493 54.2579C85.5493 54.5459 85.6164 54.7945 85.7506 55.0036C85.8887 55.2127 86.0682 55.3883 86.2891 55.5303C86.514 55.6684 86.7547 55.7848 87.0111 55.8795C87.2676 55.9703 87.5142 56.0452 87.7509 56.1044L88.9345 56.4121C89.3212 56.5068 89.7177 56.6351 90.1241 56.7968C90.5305 56.9586 90.9073 57.1716 91.2545 57.436C91.6017 57.7003 91.8818 58.0278 92.0949 58.4184C92.3119 58.809 92.4204 59.2765 92.4204 59.821C92.4204 60.5075 92.2428 61.1171 91.8877 61.6497C91.5366 62.1824 91.0256 62.6026 90.3549 62.9103C89.6881 63.2181 88.8813 63.3719 87.9344 63.3719C87.0269 63.3719 86.2418 63.2279 85.5789 62.9399C84.9161 62.6519 84.3973 62.2435 84.0225 61.7148C83.6476 61.1822 83.4405 60.5509 83.401 59.821H85.2357C85.2712 60.259 85.4132 60.6239 85.6618 60.9159C85.9143 61.2039 86.2359 61.4189 86.6265 61.561C87.021 61.6991 87.453 61.7681 87.9225 61.7681C88.4394 61.7681 88.899 61.6872 89.3015 61.5255C89.7079 61.3598 90.0274 61.1309 90.2602 60.839C90.493 60.543 90.6094 60.1978 90.6094 59.8033C90.6094 59.4442 90.5068 59.1503 90.3016 58.9215C90.1004 58.6926 89.8262 58.5032 89.479 58.3533C89.1358 58.2034 88.7471 58.0712 88.3131 57.9568L86.8809 57.5662C85.9104 57.3018 85.141 56.9132 84.5728 56.4003C84.0086 55.8874 83.7265 55.2088 83.7265 54.3645C83.7265 53.6661 83.9159 53.0565 84.2947 52.5357C84.6735 52.0149 85.1864 51.6105 85.8334 51.3225C86.4805 51.0305 87.2104 50.8846 88.0231 50.8846C88.8438 50.8846 89.5678 51.0286 90.1951 51.3166C90.8264 51.6046 91.3235 52.0011 91.6865 52.5061C92.0495 53.0072 92.2389 53.5833 92.2547 54.2343H90.491ZM98.3736 54.0804V55.5007H93.4083V54.0804H98.3736ZM94.7399 51.9025H96.5094V60.5016C96.5094 60.8449 96.5607 61.1033 96.6633 61.2769C96.7659 61.4466 96.898 61.5629 97.0598 61.6261C97.2255 61.6853 97.405 61.7148 97.5984 61.7148C97.7404 61.7148 97.8647 61.705 97.9712 61.6853C98.0777 61.6655 98.1606 61.6497 98.2198 61.6379L98.5393 63.0997C98.4368 63.1392 98.2908 63.1786 98.1014 63.2181C97.912 63.2615 97.6753 63.2851 97.3912 63.2891C96.9257 63.297 96.4917 63.2141 96.0892 63.0405C95.6868 62.8669 95.3613 62.5986 95.1127 62.2356C94.8642 61.8727 94.7399 61.417 94.7399 60.8685V51.9025ZM102.643 63.3719C102.067 63.3719 101.546 63.2654 101.081 63.0524C100.615 62.8354 100.246 62.5217 99.9741 62.1114C99.7058 61.701 99.5717 61.198 99.5717 60.6022C99.5717 60.0893 99.6703 59.6672 99.8676 59.3357C100.065 59.0043 100.331 58.7419 100.667 58.5486C101.002 58.3553 101.377 58.2093 101.791 58.1107C102.205 58.012 102.627 57.9371 103.057 57.8858C103.602 57.8226 104.044 57.7714 104.383 57.7319C104.722 57.6885 104.969 57.6195 105.123 57.5248C105.277 57.4301 105.354 57.2762 105.354 57.0631V57.0217C105.354 56.5049 105.208 56.1044 104.916 55.8203C104.628 55.5363 104.198 55.3942 103.626 55.3942C103.03 55.3942 102.56 55.5264 102.217 55.7907C101.878 56.0511 101.643 56.3411 101.513 56.6607L99.8498 56.2819C100.047 55.7296 100.335 55.2837 100.714 54.9444C101.097 54.6012 101.536 54.3526 102.034 54.1987C102.531 54.0409 103.054 53.962 103.602 53.962C103.965 53.962 104.35 54.0054 104.756 54.0922C105.166 54.1751 105.549 54.3289 105.904 54.5538C106.263 54.7787 106.557 55.1003 106.786 55.5185C107.015 55.9328 107.129 56.4713 107.129 57.1342V63.1707H105.401V61.9279H105.33C105.216 62.1567 105.044 62.3816 104.815 62.6026C104.586 62.8235 104.292 63.007 103.933 63.153C103.574 63.2989 103.144 63.3719 102.643 63.3719ZM103.028 61.9516C103.517 61.9516 103.935 61.8549 104.283 61.6616C104.634 61.4683 104.9 61.2157 105.081 60.9041C105.267 60.5884 105.36 60.2511 105.36 59.892V58.7202C105.297 58.7834 105.174 58.8425 104.993 58.8978C104.815 58.9491 104.612 58.9944 104.383 59.0339C104.154 59.0694 103.931 59.1029 103.714 59.1345C103.497 59.1621 103.316 59.1858 103.17 59.2055C102.827 59.2489 102.513 59.3219 102.229 59.4245C101.949 59.5271 101.724 59.675 101.554 59.8684C101.389 60.0578 101.306 60.3103 101.306 60.6259C101.306 61.0638 101.467 61.3953 101.791 61.6202C102.115 61.8411 102.527 61.9516 103.028 61.9516ZM109.153 63.1707V54.0804H110.863V55.5244H110.958C111.124 55.0352 111.416 54.6505 111.834 54.3704C112.256 54.0863 112.733 53.9443 113.266 53.9443C113.376 53.9443 113.507 53.9482 113.657 53.9561C113.81 53.964 113.931 53.9739 114.018 53.9857V55.6783C113.947 55.6586 113.82 55.6369 113.639 55.6132C113.457 55.5856 113.276 55.5718 113.094 55.5718C112.676 55.5718 112.303 55.6605 111.976 55.8381C111.652 56.0117 111.396 56.2543 111.206 56.566C111.017 56.8738 110.922 57.2249 110.922 57.6195V63.1707H109.153ZM119.996 54.0804V55.5007H115.031V54.0804H119.996ZM116.362 51.9025H118.132V60.5016C118.132 60.8449 118.183 61.1033 118.286 61.2769C118.388 61.4466 118.52 61.5629 118.682 61.6261C118.848 61.6853 119.027 61.7148 119.221 61.7148C119.363 61.7148 119.487 61.705 119.594 61.6853C119.7 61.6655 119.783 61.6497 119.842 61.6379L120.162 63.0997C120.059 63.1392 119.913 63.1786 119.724 63.2181C119.534 63.2615 119.298 63.2851 119.014 63.2891C118.548 63.297 118.114 63.2141 117.712 63.0405C117.309 62.8669 116.984 62.5986 116.735 62.2356C116.486 61.8727 116.362 61.417 116.362 60.8685V51.9025ZM128.213 63.1707L124.851 51.0503H126.774L129.136 60.4365H129.248L131.704 51.0503H133.61L136.066 60.4424H136.178L138.534 51.0503H140.463L137.096 63.1707H135.255L132.704 54.0922H132.61L130.059 63.1707H128.213ZM141.655 63.1707V54.0804H143.425V63.1707H141.655ZM142.549 52.6778C142.241 52.6778 141.977 52.5752 141.756 52.37C141.539 52.1609 141.43 51.9124 141.43 51.6243C141.43 51.3324 141.539 51.0838 141.756 50.8786C141.977 50.6695 142.241 50.565 142.549 50.565C142.857 50.565 143.119 50.6695 143.336 50.8786C143.557 51.0838 143.667 51.3324 143.667 51.6243C143.667 51.9124 143.557 52.1609 143.336 52.37C143.119 52.5752 142.857 52.6778 142.549 52.6778ZM149.715 54.0804V55.5007H144.75V54.0804H149.715ZM146.082 51.9025H147.851V60.5016C147.851 60.8449 147.902 61.1033 148.005 61.2769C148.108 61.4466 148.24 61.5629 148.402 61.6261C148.567 61.6853 148.747 61.7148 148.94 61.7148C149.082 61.7148 149.206 61.705 149.313 61.6853C149.42 61.6655 149.502 61.6497 149.562 61.6379L149.881 63.0997C149.779 63.1392 149.633 63.1786 149.443 63.2181C149.254 63.2615 149.017 63.2851 148.733 63.2891C148.267 63.297 147.833 63.2141 147.431 63.0405C147.029 62.8669 146.703 62.5986 146.455 62.2356C146.206 61.8727 146.082 61.417 146.082 60.8685V51.9025ZM153.304 57.7733V63.1707H151.535V51.0503H153.281V55.5599H153.393C153.606 55.0707 153.932 54.6821 154.37 54.394C154.808 54.106 155.38 53.962 156.086 53.962C156.709 53.962 157.254 54.0902 157.719 54.3467C158.189 54.6032 158.552 54.9859 158.808 55.4948C159.069 55.9998 159.199 56.6311 159.199 57.3886V63.1707H157.429V57.6017C157.429 56.9349 157.258 56.4181 156.914 56.0511C156.571 55.6803 156.094 55.4948 155.482 55.4948C155.064 55.4948 154.689 55.5836 154.358 55.7611C154.03 55.9387 153.772 56.1991 153.583 56.5423C153.397 56.8817 153.304 57.292 153.304 57.7733ZM169.37 63.1707H165.446V51.0503H169.494C170.682 51.0503 171.702 51.2929 172.554 51.7782C173.406 52.2596 174.059 52.952 174.513 53.8555C174.971 54.7551 175.199 55.8341 175.199 57.0927C175.199 58.3553 174.969 59.4403 174.507 60.3477C174.049 61.2552 173.386 61.9535 172.518 62.4428C171.65 62.9281 170.601 63.1707 169.37 63.1707ZM167.275 61.5728H169.269C170.193 61.5728 170.96 61.3992 171.572 61.052C172.183 60.7009 172.641 60.1939 172.945 59.531C173.248 58.8642 173.4 58.0515 173.4 57.0927C173.4 56.1419 173.248 55.335 172.945 54.6722C172.645 54.0094 172.197 53.5063 171.601 53.1631C171.005 52.8198 170.266 52.6482 169.382 52.6482H167.275V61.5728ZM176.998 63.1707V54.0804H178.768V63.1707H176.998ZM177.892 52.6778C177.584 52.6778 177.32 52.5752 177.099 52.37C176.882 52.1609 176.773 51.9124 176.773 51.6243C176.773 51.3324 176.882 51.0838 177.099 50.8786C177.32 50.6695 177.584 50.565 177.892 50.565C178.199 50.565 178.462 50.6695 178.679 50.8786C178.9 51.0838 179.01 51.3324 179.01 51.6243C179.01 51.9124 178.9 52.1609 178.679 52.37C178.462 52.5752 178.199 52.6778 177.892 52.6778ZM187.627 56.2997L186.023 56.5838C185.956 56.3786 185.849 56.1833 185.703 55.9979C185.561 55.8124 185.368 55.6605 185.123 55.5422C184.879 55.4238 184.573 55.3646 184.206 55.3646C183.705 55.3646 183.287 55.4771 182.951 55.702C182.616 55.9229 182.448 56.209 182.448 56.5601C182.448 56.8639 182.561 57.1085 182.786 57.294C183.011 57.4794 183.374 57.6313 183.875 57.7497L185.319 58.0811C186.155 58.2744 186.778 58.5723 187.189 58.9747C187.599 59.3772 187.804 59.8999 187.804 60.543C187.804 61.0875 187.646 61.5728 187.331 61.9989C187.019 62.4211 186.583 62.7525 186.023 62.9932C185.467 63.2338 184.822 63.3542 184.088 63.3542C183.07 63.3542 182.239 63.1372 181.596 62.7032C180.953 62.2652 180.558 61.6438 180.412 60.839L182.123 60.5786C182.229 61.0244 182.448 61.3617 182.78 61.5906C183.111 61.8155 183.543 61.9279 184.076 61.9279C184.656 61.9279 185.119 61.8076 185.467 61.5669C185.814 61.3223 185.987 61.0244 185.987 60.6732C185.987 60.3892 185.881 60.1505 185.668 59.9571C185.459 59.7638 185.137 59.6178 184.703 59.5192L183.164 59.1819C182.316 58.9885 181.689 58.6808 181.282 58.2586C180.88 57.8365 180.679 57.3018 180.679 56.6548C180.679 56.1182 180.829 55.6487 181.129 55.2463C181.428 54.8438 181.843 54.5302 182.371 54.3053C182.9 54.0764 183.506 53.962 184.188 53.962C185.171 53.962 185.944 54.1751 186.508 54.6012C187.072 55.0233 187.445 55.5895 187.627 56.2997ZM193.246 63.3542C192.366 63.3542 191.608 63.1549 190.973 62.7564C190.342 62.354 189.856 61.7997 189.517 61.0934C189.178 60.3872 189.008 59.5784 189.008 58.667C189.008 57.7437 189.182 56.929 189.529 56.2228C189.876 55.5126 190.365 54.9582 190.997 54.5598C191.628 54.1613 192.372 53.962 193.228 53.962C193.918 53.962 194.534 54.0902 195.074 54.3467C195.615 54.5992 196.051 54.9543 196.382 55.412C196.718 55.8696 196.917 56.4043 196.98 57.0158H195.258C195.163 56.5897 194.946 56.2228 194.607 55.915C194.271 55.6073 193.822 55.4534 193.257 55.4534C192.764 55.4534 192.332 55.5836 191.961 55.844C191.594 56.1005 191.308 56.4674 191.103 56.9448C190.898 57.4182 190.795 57.9785 190.795 58.6255C190.795 59.2884 190.896 59.8605 191.097 60.3418C191.299 60.8232 191.583 61.196 191.95 61.4604C192.32 61.7247 192.756 61.8569 193.257 61.8569C193.593 61.8569 193.897 61.7957 194.169 61.6734C194.445 61.5472 194.676 61.3676 194.861 61.1349C195.051 60.9021 195.183 60.622 195.258 60.2945H196.98C196.917 60.8824 196.726 61.4071 196.406 61.8687C196.086 62.3303 195.658 62.6933 195.122 62.9577C194.589 63.222 193.964 63.3542 193.246 63.3542ZM202.368 63.3542C201.516 63.3542 200.772 63.1589 200.137 62.7683C199.502 62.3777 199.009 61.8312 198.657 61.1289C198.306 60.4267 198.131 59.606 198.131 58.667C198.131 57.724 198.306 56.8994 198.657 56.1932C199.009 55.4869 199.502 54.9385 200.137 54.5479C200.772 54.1573 201.516 53.962 202.368 53.962C203.22 53.962 203.964 54.1573 204.599 54.5479C205.234 54.9385 205.728 55.4869 206.079 56.1932C206.43 56.8994 206.606 57.724 206.606 58.667C206.606 59.606 206.43 60.4267 206.079 61.1289C205.728 61.8312 205.234 62.3777 204.599 62.7683C203.964 63.1589 203.22 63.3542 202.368 63.3542ZM202.374 61.8687C202.926 61.8687 203.384 61.7227 203.747 61.4308C204.11 61.1388 204.378 60.7502 204.552 60.2649C204.729 59.7796 204.818 59.245 204.818 58.6611C204.818 58.0811 204.729 57.5484 204.552 57.0631C204.378 56.5739 204.11 56.1813 203.747 55.8854C203.384 55.5895 202.926 55.4416 202.374 55.4416C201.818 55.4416 201.356 55.5895 200.989 55.8854C200.626 56.1813 200.356 56.5739 200.178 57.0631C200.005 57.5484 199.918 58.0811 199.918 58.6611C199.918 59.245 200.005 59.7796 200.178 60.2649C200.356 60.7502 200.626 61.1388 200.989 61.4308C201.356 61.7227 201.818 61.8687 202.374 61.8687ZM215.715 54.0804L212.418 63.1707H210.524L207.222 54.0804H209.122L211.424 61.0757H211.519L213.815 54.0804H215.715ZM220.653 63.3542C219.757 63.3542 218.986 63.1628 218.339 62.7801C217.696 62.3935 217.199 61.851 216.848 61.1526C216.5 60.4503 216.327 59.6277 216.327 58.6847C216.327 57.7536 216.5 56.9329 216.848 56.2228C217.199 55.5126 217.688 54.9582 218.315 54.5598C218.947 54.1613 219.684 53.962 220.529 53.962C221.042 53.962 221.539 54.0468 222.02 54.2165C222.501 54.3862 222.933 54.6525 223.316 55.0155C223.699 55.3784 224.001 55.8499 224.222 56.4299C224.443 57.0059 224.553 57.7063 224.553 58.5309V59.1582H217.327V57.8325H222.819C222.819 57.3669 222.724 56.9546 222.535 56.5956C222.346 56.2326 222.079 55.9466 221.736 55.7375C221.397 55.5284 220.998 55.4238 220.541 55.4238C220.043 55.4238 219.609 55.5461 219.239 55.7907C218.872 56.0314 218.588 56.347 218.386 56.7376C218.189 57.1243 218.09 57.5445 218.09 57.9982V59.0339C218.09 59.6415 218.197 60.1584 218.41 60.5845C218.627 61.0106 218.929 61.3361 219.315 61.561C219.702 61.7819 220.154 61.8924 220.671 61.8924C221.006 61.8924 221.312 61.845 221.588 61.7504C221.864 61.6517 222.103 61.5057 222.304 61.3124C222.505 61.1191 222.659 60.8804 222.766 60.5963L224.441 60.8981C224.306 61.3913 224.066 61.8233 223.719 62.1942C223.375 62.5611 222.943 62.8472 222.423 63.0524C221.906 63.2536 221.316 63.3542 220.653 63.3542ZM226.183 63.1707V54.0804H227.893V55.5244H227.988C228.154 55.0352 228.446 54.6505 228.864 54.3704C229.286 54.0863 229.764 53.9443 230.296 53.9443C230.407 53.9443 230.537 53.9482 230.687 53.9561C230.841 53.964 230.961 53.9739 231.048 53.9857V55.6783C230.977 55.6586 230.851 55.6369 230.669 55.6132C230.488 55.5856 230.306 55.5718 230.125 55.5718C229.706 55.5718 229.334 55.6605 229.006 55.8381C228.683 56.0117 228.426 56.2543 228.237 56.566C228.047 56.8738 227.953 57.2249 227.953 57.6195V63.1707H226.183ZM233.641 66.5796C233.377 66.5796 233.136 66.5579 232.919 66.5145C232.702 66.475 232.54 66.4316 232.434 66.3843L232.86 64.9343C233.183 65.0211 233.471 65.0586 233.724 65.0468C233.976 65.0349 234.199 64.9403 234.393 64.7627C234.59 64.5852 234.764 64.2952 234.913 63.8927L235.132 63.2891L231.806 54.0804H233.7L236.002 61.1349H236.097L238.399 54.0804H240.299L236.553 64.3839C236.379 64.8574 236.158 65.2579 235.89 65.5853C235.622 65.9168 235.302 66.1653 234.931 66.331C234.56 66.4967 234.13 66.5796 233.641 66.5796ZM255.915 54.9918H254.068C253.997 54.5972 253.865 54.25 253.672 53.9502C253.479 53.6503 253.242 53.3958 252.962 53.1867C252.682 52.9776 252.368 52.8198 252.021 52.7133C251.677 52.6068 251.312 52.5535 250.926 52.5535C250.227 52.5535 249.602 52.7291 249.05 53.0802C248.501 53.4314 248.067 53.9462 247.748 54.6249C247.432 55.3035 247.274 56.132 247.274 57.1105C247.274 58.0969 247.432 58.9293 247.748 59.608C248.067 60.2866 248.503 60.7995 249.056 61.1467C249.608 61.4939 250.229 61.6675 250.92 61.6675C251.303 61.6675 251.666 61.6162 252.009 61.5136C252.356 61.4071 252.67 61.2513 252.95 61.0461C253.23 60.8409 253.467 60.5904 253.66 60.2945C253.857 59.9946 253.993 59.6514 254.068 59.2647L255.915 59.2706C255.816 59.8664 255.625 60.4148 255.341 60.9159C255.061 61.413 254.7 61.8431 254.258 62.2061C253.82 62.5651 253.319 62.8432 252.755 63.0405C252.19 63.2378 251.575 63.3364 250.908 63.3364C249.859 63.3364 248.923 63.0879 248.103 62.5907C247.282 62.0897 246.635 61.3736 246.162 60.4424C245.692 59.5113 245.457 58.4007 245.457 57.1105C245.457 55.8164 245.694 54.7057 246.168 53.7786C246.641 52.8474 247.288 52.1333 248.109 51.6362C248.929 51.1351 249.862 50.8846 250.908 50.8846C251.551 50.8846 252.151 50.9773 252.707 51.1627C253.267 51.3442 253.77 51.6125 254.216 51.9676C254.662 52.3187 255.031 52.7488 255.323 53.2578C255.615 53.7628 255.812 54.3408 255.915 54.9918ZM260.273 63.3719C259.697 63.3719 259.176 63.2654 258.711 63.0524C258.245 62.8354 257.876 62.5217 257.604 62.1114C257.336 61.701 257.202 61.198 257.202 60.6022C257.202 60.0893 257.3 59.6672 257.498 59.3357C257.695 59.0043 257.961 58.7419 258.296 58.5486C258.632 58.3553 259.007 58.2093 259.421 58.1107C259.835 58.012 260.257 57.9371 260.687 57.8858C261.232 57.8226 261.674 57.7714 262.013 57.7319C262.352 57.6885 262.599 57.6195 262.753 57.5248C262.907 57.4301 262.984 57.2762 262.984 57.0631V57.0217C262.984 56.5049 262.838 56.1044 262.546 55.8203C262.258 55.5363 261.828 55.3942 261.256 55.3942C260.66 55.3942 260.19 55.5264 259.847 55.7907C259.508 56.0511 259.273 56.3411 259.143 56.6607L257.48 56.2819C257.677 55.7296 257.965 55.2837 258.344 54.9444C258.727 54.6012 259.166 54.3526 259.664 54.1987C260.161 54.0409 260.683 53.962 261.232 53.962C261.595 53.962 261.98 54.0054 262.386 54.0922C262.796 54.1751 263.179 54.3289 263.534 54.5538C263.893 54.7787 264.187 55.1003 264.416 55.5185C264.645 55.9328 264.759 56.4713 264.759 57.1342V63.1707H263.031V61.9279H262.96C262.846 62.1567 262.674 62.3816 262.445 62.6026C262.216 62.8235 261.922 63.007 261.563 63.153C261.204 63.2989 260.774 63.3719 260.273 63.3719ZM260.658 61.9516C261.147 61.9516 261.565 61.8549 261.912 61.6616C262.264 61.4683 262.53 61.2157 262.711 60.9041C262.897 60.5884 262.99 60.2511 262.99 59.892V58.7202C262.926 58.7834 262.804 58.8425 262.623 58.8978C262.445 58.9491 262.242 58.9944 262.013 59.0339C261.784 59.0694 261.561 59.1029 261.344 59.1345C261.127 59.1621 260.946 59.1858 260.8 59.2055C260.457 59.2489 260.143 59.3219 259.859 59.4245C259.579 59.5271 259.354 59.675 259.184 59.8684C259.018 60.0578 258.936 60.3103 258.936 60.6259C258.936 61.0638 259.097 61.3953 259.421 61.6202C259.744 61.8411 260.157 61.9516 260.658 61.9516ZM268.552 51.0503V63.1707H266.783V51.0503H268.552ZM272.369 51.0503V63.1707H270.6V51.0503H272.369Z" fill="#0A0A0A"/>
</svg>
